<svg id="Layer_1" data-name="Layer 1" xmlns="http://www.w3.org/2000/svg" viewBox="0 0 294.7 171.88">
  <defs>
    <style>
      .cls-1 {
        fill: #484b4d;
      }

      .cls-2 {
        fill: #f0e900;
      }

      .cls-3 {
        fill: #bfbfbf;
      }

      .cls-4 {
        fill: #2ea7e0;
      }

      .cls-5 {
        fill: #f39800;
      }

      .cls-6 {
        fill: #b8d200;
      }

      .cls-7 {
        fill: #d0850a;
      }

      .cls-8 {
        fill: #00a33b;
      }

      .cls-9 {
        fill: #9aba00;
      }

      .cls-10 {
        fill: #7fbe26;
      }
    </style>
  </defs>
  <title>Lakeridge_cmyk</title>
  <g>
    <g>
      <circle class="cls-1" cx="216.2" cy="318.95" r="52" transform="translate(-203.02 -236.84) rotate(-7.31)"/>
      <g>
        <path class="cls-2" d="M236.51,304.58a14.32,14.32,0,0,0-10.16,4.21,14.35,14.35,0,0,1,0,20.31,14.37,14.37,0,1,0,10.16-24.52Z" transform="translate(-164.2 -266.94)"/>
        <path class="cls-3" d="M216.2,304.58a14.32,14.32,0,0,1,10.15,4.21v0a14.37,14.37,0,1,0-20.3,0A14.32,14.32,0,0,1,216.2,304.58Z" transform="translate(-164.2 -266.94)"/>
        <path class="cls-4" d="M226.33,329.08l0,0a14.35,14.35,0,0,1-20.31,0,14.36,14.36,0,1,0,20.29,0Z" transform="translate(-164.2 -266.94)"/>
        <path class="cls-5" d="M201.83,319A14.32,14.32,0,0,1,206,308.79l0,0a14.37,14.37,0,1,0,0,20.27,0,0,0,0,1,0,0A14.32,14.32,0,0,1,201.83,319Z" transform="translate(-164.2 -266.94)"/>
        <path class="cls-6" d="M226.34,308.81a14.36,14.36,0,0,1-20.28,0,14.35,14.35,0,0,1,0,20.27,14.38,14.38,0,0,1,20.27,0,14.36,14.36,0,0,1,0-20.27Z" transform="translate(-164.2 -266.94)"/>
        <path class="cls-7" d="M206.06,308.81l0,0a14.35,14.35,0,0,0,0,20.31,0,0,0,0,0,0,0,14.35,14.35,0,0,0,0-20.27Z" transform="translate(-164.2 -266.94)"/>
        <path class="cls-8" d="M216.2,333.31a14.32,14.32,0,0,0,10.15-4.21l0,0a14.38,14.38,0,0,0-20.29,0A14.32,14.32,0,0,0,216.2,333.31Z" transform="translate(-164.2 -266.94)"/>
        <path class="cls-9" d="M216.2,313a14.32,14.32,0,0,0,10.14-4.19v0a14.35,14.35,0,0,0-20.31,0A14.32,14.32,0,0,0,216.2,313Z" transform="translate(-164.2 -266.94)"/>
        <path class="cls-10" d="M230.56,319a14.32,14.32,0,0,0-4.21-10.16,14.38,14.38,0,0,0,0,20.31A14.32,14.32,0,0,0,230.56,319Z" transform="translate(-164.2 -266.94)"/>
      </g>
    </g>
    <g>
      <path class="cls-1" d="M268.2,371h6.85v25.38h15.17v5.76h-22Z" transform="translate(-164.2 -266.94)"/>
      <path class="cls-1" d="M292.27,386.48c.35-5.81,5.54-7.55,10.6-7.55,4.49,0,9.9,1,9.9,6.41v11.73c0,2.05.22,4.1.78,5h-6.28a9.46,9.46,0,0,1-.43-2.18,10.33,10.33,0,0,1-7.59,2.79c-4.27,0-7.68-2.14-7.68-6.76,0-5.1,3.84-6.33,7.68-6.85s7.33-.43,7.33-3-1.84-3.06-4-3.06c-2.35,0-3.88,1-4.1,3.41Zm14.31,4.57c-1.05.92-3.23,1-5.15,1.31s-3.66,1.05-3.66,3.32,1.78,2.88,3.79,2.88c4.84,0,5-3.84,5-5.19Z" transform="translate(-164.2 -266.94)"/>
      <path class="cls-1" d="M316.39,371h6.19v16.7l7.81-8.11h7.32l-8.5,8.29,9.46,14.26h-7.5L325,392l-2.4,2.31v7.77h-6.19Z" transform="translate(-164.2 -266.94)"/>
      <path class="cls-1" d="M343,392.32c.18,3.92,2.09,5.71,5.54,5.71,2.49,0,4.49-1.52,4.89-2.92h5.45c-1.75,5.32-5.45,7.59-10.56,7.59-7.11,0-11.51-4.89-11.51-11.86,0-6.76,4.67-11.91,11.51-11.91,7.68,0,11.38,6.45,10.95,13.39Zm10.08-3.93c-.57-3.14-1.92-4.79-4.93-4.79a4.88,4.88,0,0,0-5.15,4.79Z" transform="translate(-164.2 -266.94)"/>
      <path class="cls-1" d="M361.22,379.54h5.88v4.19h.09a8,8,0,0,1,7.2-4.8,4.65,4.65,0,0,1,1.35.22v5.75a11.5,11.5,0,0,0-2.23-.21c-4.53,0-6.1,3.27-6.1,7.24v10.16h-6.19Z" transform="translate(-164.2 -266.94)"/>
      <path class="cls-1" d="M384.55,376.05h-6.2V371h6.2Zm-6.2,3.49h6.2v22.55h-6.2Z" transform="translate(-164.2 -266.94)"/>
      <path class="cls-1" d="M403.78,399.21h-.09c-1.44,2.44-4,3.49-6.85,3.49-6.8,0-10.11-5.85-10.11-12.08,0-6.06,3.35-11.69,10-11.69a7.87,7.87,0,0,1,6.72,3.36h0V371h6.2v31.14h-5.89Zm-5.41-15.61c-4.06,0-5.45,3.49-5.45,7.19,0,3.53,1.61,7.24,5.45,7.24,4.1,0,5.32-3.57,5.32-7.28S402.38,383.6,398.37,383.6Z" transform="translate(-164.2 -266.94)"/>
      <path class="cls-1" d="M434.26,400.65c0,3.71-1.31,10-11.69,10-4.45,0-9.64-2.09-9.94-7.23h6.15c.57,2.31,2.44,3.09,4.62,3.09,3.45,0,5-2.35,5-5.58v-3h-.08a7.64,7.64,0,0,1-6.76,3.48c-6.76,0-9.64-5.14-9.64-11.34,0-5.84,3.36-11.16,9.68-11.16,3,0,5.23,1,6.72,3.62h.08v-3h5.89Zm-5.89-10.12c0-3.66-1.26-6.93-5.27-6.93-3.49,0-5,3-5,6.41s1.22,6.76,5,6.76C426.63,396.77,428.37,393.76,428.37,390.53Z" transform="translate(-164.2 -266.94)"/>
      <path class="cls-1" d="M442.59,392.32c.17,3.92,2.09,5.71,5.54,5.71,2.48,0,4.49-1.52,4.88-2.92h5.45c-1.74,5.32-5.45,7.59-10.55,7.59-7.11,0-11.51-4.89-11.51-11.86,0-6.76,4.66-11.91,11.51-11.91,7.67,0,11.38,6.45,10.95,13.39Zm10.07-3.93c-.56-3.14-1.92-4.79-4.93-4.79a4.88,4.88,0,0,0-5.14,4.79Z" transform="translate(-164.2 -266.94)"/>
      <path class="cls-1" d="M268.2,407.08h6.85V419h12.6V407.08h6.85v31.14h-6.85V424.79h-12.6v13.43H268.2Z" transform="translate(-164.2 -266.94)"/>
      <path class="cls-1" d="M302.35,428.45c.17,3.92,2.09,5.71,5.53,5.71,2.49,0,4.5-1.53,4.89-2.92h5.45c-1.74,5.32-5.45,7.59-10.55,7.59-7.11,0-11.52-4.89-11.52-11.87,0-6.75,4.67-11.9,11.52-11.9,7.67,0,11.38,6.45,10.94,13.39Zm10.07-3.93c-.57-3.14-1.92-4.79-4.93-4.79a4.87,4.87,0,0,0-5.14,4.79Z" transform="translate(-164.2 -266.94)"/>
      <path class="cls-1" d="M320.27,422.6c.35-5.8,5.54-7.54,10.6-7.54,4.49,0,9.9,1,9.9,6.41V433.2c0,2.05.21,4.1.78,5h-6.28a9.48,9.48,0,0,1-.44-2.18,10.33,10.33,0,0,1-7.58,2.79c-4.28,0-7.68-2.14-7.68-6.76,0-5.11,3.84-6.33,7.68-6.85s7.32-.43,7.32-3-1.83-3.06-4-3.06c-2.35,0-3.88,1-4.1,3.4Zm14.3,4.58c-1,.92-3.22,1-5.14,1.31s-3.67,1.05-3.67,3.32,1.79,2.87,3.8,2.87c4.84,0,5-3.83,5-5.19Z" transform="translate(-164.2 -266.94)"/>
      <path class="cls-1" d="M344,407.08h6.19v31.14H344Z" transform="translate(-164.2 -266.94)"/>
      <path class="cls-1" d="M362,415.67h4.54v4.14H362V431c0,2.09.53,2.61,2.62,2.61a9.52,9.52,0,0,0,1.92-.17v4.84a23.09,23.09,0,0,1-3.62.22c-3.79,0-7.11-.87-7.11-5.36V419.81H352.1v-4.14h3.75v-6.76H362Z" transform="translate(-164.2 -266.94)"/>
      <path class="cls-1" d="M368.67,407.08h6.2v11.73H375a7.91,7.91,0,0,1,6.58-3.75c6.59,0,8.24,3.71,8.24,9.29v13.87h-6.19V425.48c0-3.7-1.09-5.54-4-5.54-3.36,0-4.79,1.88-4.79,6.46v11.82h-6.2Z" transform="translate(-164.2 -266.94)"/>
    </g>
  </g>
</svg>
